# xmcd CD database file
#
# Track frame offsets:
#	150
#	19222
#	34881
#	48515
#	61681
#	78651
#	93376
#	109038
#	123675
#	139187
#	152641
#	169806
#	185318
#
# Disc length: 2674 seconds
#
# Revision: 1
# Processed by: cddbd v1.5.2PL0 Copyright (c) Steve Scherf et al.
# Submitted via: CDex 1.51
#
DISCID=ac0a700d
DTITLE=ADILSON LUIZ and ALEXANDRE - MEU PARAIZO
DYEAR=2014
DGENRE=Country
TTITLE0=meu paraizo
TTITLE1=viola cachaça e mulher
TTITLE2=paixão é assim
TTITLE3=é hoje
TTITLE4=volta pro seu sertão
TTITLE5=da jeito de voltar
TTITLE6=sem o teu olhar por perto
TTITLE7=pare e pense
TTITLE8=vou cair no mundo
TTITLE9=flor do meu sertão
TTITLE10=homem sem paçavras
TTITLE11=desespero
TTITLE12=pbsessão
EXTD=YEAR: 2014
EXTT0=
EXTT1=
EXTT2=
EXTT3=
EXTT4=
EXTT5=
EXTT6=
EXTT7=
EXTT8=
EXTT9=
EXTT10=
EXTT11=
EXTT12=
PLAYORDER=
